<mxfile host="app.diagrams.net" modified="2023-10-31T03:49:08.957Z" agent="Mozilla/5.0 (X11; Ubuntu; Linux x86_64; rv:109.0) Gecko/20100101 Firefox/119.0" etag="m3XoDPWws8W1Qe7Wq0CM" version="22.0.8" type="github">
  <diagram name="Page-1" id="saMt6o6W1V1RxT8-ubNo">
    <mxGraphModel dx="2948" dy="1223" grid="1" gridSize="10" guides="1" tooltips="1" connect="1" arrows="1" fold="1" page="1" pageScale="1" pageWidth="850" pageHeight="1100" math="0" shadow="0">
      <root>
        <mxCell id="0" />
        <mxCell id="1" parent="0" />
        <mxCell id="la9Zs1Ly_CtsKW1PTPT4-1" value="Device_Agent " style="rounded=0;whiteSpace=wrap;html=1;" vertex="1" parent="1">
          <mxGeometry y="80" width="120" height="40" as="geometry" />
        </mxCell>
        <mxCell id="la9Zs1Ly_CtsKW1PTPT4-2" value="Camera_Manager" style="rounded=0;whiteSpace=wrap;html=1;" vertex="1" parent="1">
          <mxGeometry x="160" y="80" width="120" height="40" as="geometry" />
        </mxCell>
        <mxCell id="la9Zs1Ly_CtsKW1PTPT4-3" value="Dahua_camera" style="rounded=0;whiteSpace=wrap;html=1;" vertex="1" parent="1">
          <mxGeometry x="320" y="80" width="120" height="40" as="geometry" />
        </mxCell>
        <mxCell id="la9Zs1Ly_CtsKW1PTPT4-4" value="dahua_SDK_connection" style="rounded=0;whiteSpace=wrap;html=1;" vertex="1" parent="1">
          <mxGeometry x="480" y="80" width="160" height="40" as="geometry" />
        </mxCell>
        <mxCell id="la9Zs1Ly_CtsKW1PTPT4-5" value="WorkerThread" style="rounded=0;whiteSpace=wrap;html=1;" vertex="1" parent="1">
          <mxGeometry x="680" y="80" width="120" height="40" as="geometry" />
        </mxCell>
        <mxCell id="la9Zs1Ly_CtsKW1PTPT4-9" value="Face_detection_obj" style="rounded=0;whiteSpace=wrap;html=1;" vertex="1" parent="1">
          <mxGeometry x="1080" y="580" width="120" height="40" as="geometry" />
        </mxCell>
        <mxCell id="la9Zs1Ly_CtsKW1PTPT4-10" value="I_camera" style="rounded=0;whiteSpace=wrap;html=1;" vertex="1" parent="1">
          <mxGeometry x="1230" y="80" width="120" height="40" as="geometry" />
        </mxCell>
        <mxCell id="la9Zs1Ly_CtsKW1PTPT4-11" value="" style="endArrow=none;html=1;rounded=0;" edge="1" parent="1">
          <mxGeometry width="50" height="50" relative="1" as="geometry">
            <mxPoint x="60" y="170" as="sourcePoint" />
            <mxPoint x="60" y="120" as="targetPoint" />
          </mxGeometry>
        </mxCell>
        <mxCell id="la9Zs1Ly_CtsKW1PTPT4-12" value="getInstance" style="rounded=1;whiteSpace=wrap;html=1;" vertex="1" parent="1">
          <mxGeometry y="160" width="120" height="40" as="geometry" />
        </mxCell>
        <mxCell id="la9Zs1Ly_CtsKW1PTPT4-13" value="setHost" style="rounded=1;whiteSpace=wrap;html=1;" vertex="1" parent="1">
          <mxGeometry y="320" width="120" height="40" as="geometry" />
        </mxCell>
        <mxCell id="la9Zs1Ly_CtsKW1PTPT4-14" value="setPort" style="rounded=1;whiteSpace=wrap;html=1;" vertex="1" parent="1">
          <mxGeometry y="400" width="120" height="40" as="geometry" />
        </mxCell>
        <mxCell id="la9Zs1Ly_CtsKW1PTPT4-15" value="setDeviceId" style="rounded=1;whiteSpace=wrap;html=1;" vertex="1" parent="1">
          <mxGeometry y="480" width="120" height="40" as="geometry" />
        </mxCell>
        <mxCell id="la9Zs1Ly_CtsKW1PTPT4-16" value="setUsername" style="rounded=1;whiteSpace=wrap;html=1;" vertex="1" parent="1">
          <mxGeometry y="560" width="120" height="40" as="geometry" />
        </mxCell>
        <mxCell id="la9Zs1Ly_CtsKW1PTPT4-17" value="setPassword" style="rounded=1;whiteSpace=wrap;html=1;" vertex="1" parent="1">
          <mxGeometry y="640" width="120" height="40" as="geometry" />
        </mxCell>
        <mxCell id="la9Zs1Ly_CtsKW1PTPT4-18" value="login" style="rounded=1;whiteSpace=wrap;html=1;" vertex="1" parent="1">
          <mxGeometry y="720" width="120" height="40" as="geometry" />
        </mxCell>
        <mxCell id="la9Zs1Ly_CtsKW1PTPT4-19" value="subscribe" style="rounded=1;whiteSpace=wrap;html=1;" vertex="1" parent="1">
          <mxGeometry y="800" width="120" height="40" as="geometry" />
        </mxCell>
        <mxCell id="la9Zs1Ly_CtsKW1PTPT4-20" value="unsubscribe" style="rounded=1;whiteSpace=wrap;html=1;" vertex="1" parent="1">
          <mxGeometry y="880" width="120" height="40" as="geometry" />
        </mxCell>
        <mxCell id="la9Zs1Ly_CtsKW1PTPT4-21" value="logout" style="rounded=1;whiteSpace=wrap;html=1;" vertex="1" parent="1">
          <mxGeometry y="960" width="120" height="40" as="geometry" />
        </mxCell>
        <mxCell id="la9Zs1Ly_CtsKW1PTPT4-22" value="getCameraMap" style="rounded=1;whiteSpace=wrap;html=1;" vertex="1" parent="1">
          <mxGeometry x="160" y="160" width="120" height="40" as="geometry" />
        </mxCell>
        <mxCell id="la9Zs1Ly_CtsKW1PTPT4-23" value="createInstance" style="rounded=1;whiteSpace=wrap;html=1;" vertex="1" parent="1">
          <mxGeometry x="160" y="210" width="120" height="40" as="geometry" />
        </mxCell>
        <mxCell id="la9Zs1Ly_CtsKW1PTPT4-26" value="" style="endArrow=none;html=1;rounded=0;exitX=0.5;exitY=0;exitDx=0;exitDy=0;" edge="1" parent="1" source="la9Zs1Ly_CtsKW1PTPT4-13">
          <mxGeometry width="50" height="50" relative="1" as="geometry">
            <mxPoint x="10" y="250" as="sourcePoint" />
            <mxPoint x="60" y="200" as="targetPoint" />
          </mxGeometry>
        </mxCell>
        <mxCell id="la9Zs1Ly_CtsKW1PTPT4-27" value="" style="endArrow=none;html=1;rounded=0;exitX=0.5;exitY=0;exitDx=0;exitDy=0;" edge="1" parent="1">
          <mxGeometry width="50" height="50" relative="1" as="geometry">
            <mxPoint x="59.5" y="400" as="sourcePoint" />
            <mxPoint x="59.5" y="360" as="targetPoint" />
          </mxGeometry>
        </mxCell>
        <mxCell id="la9Zs1Ly_CtsKW1PTPT4-28" value="" style="endArrow=none;html=1;rounded=0;exitX=0.5;exitY=0;exitDx=0;exitDy=0;" edge="1" parent="1">
          <mxGeometry width="50" height="50" relative="1" as="geometry">
            <mxPoint x="59.71" y="480" as="sourcePoint" />
            <mxPoint x="59.71" y="440" as="targetPoint" />
          </mxGeometry>
        </mxCell>
        <mxCell id="la9Zs1Ly_CtsKW1PTPT4-29" value="" style="endArrow=none;html=1;rounded=0;exitX=0.5;exitY=0;exitDx=0;exitDy=0;" edge="1" parent="1">
          <mxGeometry width="50" height="50" relative="1" as="geometry">
            <mxPoint x="59.71" y="560" as="sourcePoint" />
            <mxPoint x="59.71" y="520" as="targetPoint" />
          </mxGeometry>
        </mxCell>
        <mxCell id="la9Zs1Ly_CtsKW1PTPT4-30" value="" style="endArrow=none;html=1;rounded=0;exitX=0.5;exitY=0;exitDx=0;exitDy=0;" edge="1" parent="1">
          <mxGeometry width="50" height="50" relative="1" as="geometry">
            <mxPoint x="59.71" y="640" as="sourcePoint" />
            <mxPoint x="59.71" y="600" as="targetPoint" />
          </mxGeometry>
        </mxCell>
        <mxCell id="la9Zs1Ly_CtsKW1PTPT4-31" value="" style="endArrow=none;html=1;rounded=0;exitX=0.5;exitY=0;exitDx=0;exitDy=0;" edge="1" parent="1">
          <mxGeometry width="50" height="50" relative="1" as="geometry">
            <mxPoint x="59.71" y="720" as="sourcePoint" />
            <mxPoint x="59.71" y="680" as="targetPoint" />
          </mxGeometry>
        </mxCell>
        <mxCell id="la9Zs1Ly_CtsKW1PTPT4-32" value="" style="endArrow=none;html=1;rounded=0;exitX=0.5;exitY=0;exitDx=0;exitDy=0;" edge="1" parent="1">
          <mxGeometry width="50" height="50" relative="1" as="geometry">
            <mxPoint x="59.71" y="800" as="sourcePoint" />
            <mxPoint x="59.71" y="760" as="targetPoint" />
          </mxGeometry>
        </mxCell>
        <mxCell id="la9Zs1Ly_CtsKW1PTPT4-33" value="" style="endArrow=none;html=1;rounded=0;exitX=0.5;exitY=0;exitDx=0;exitDy=0;" edge="1" parent="1">
          <mxGeometry width="50" height="50" relative="1" as="geometry">
            <mxPoint x="59.709999999999994" y="880" as="sourcePoint" />
            <mxPoint x="59.709999999999994" y="840" as="targetPoint" />
          </mxGeometry>
        </mxCell>
        <mxCell id="la9Zs1Ly_CtsKW1PTPT4-34" value="" style="endArrow=none;html=1;rounded=0;exitX=0.5;exitY=0;exitDx=0;exitDy=0;" edge="1" parent="1">
          <mxGeometry width="50" height="50" relative="1" as="geometry">
            <mxPoint x="59.709999999999994" y="960" as="sourcePoint" />
            <mxPoint x="59.709999999999994" y="920" as="targetPoint" />
          </mxGeometry>
        </mxCell>
        <mxCell id="la9Zs1Ly_CtsKW1PTPT4-35" value="" style="endArrow=classic;html=1;rounded=0;exitX=1;exitY=0.5;exitDx=0;exitDy=0;entryX=0;entryY=0.5;entryDx=0;entryDy=0;" edge="1" parent="1" source="la9Zs1Ly_CtsKW1PTPT4-12">
          <mxGeometry width="50" height="50" relative="1" as="geometry">
            <mxPoint x="110" y="210" as="sourcePoint" />
            <mxPoint x="160" y="180" as="targetPoint" />
          </mxGeometry>
        </mxCell>
        <mxCell id="la9Zs1Ly_CtsKW1PTPT4-40" value="" style="endArrow=none;html=1;rounded=0;exitX=0.5;exitY=0;exitDx=0;exitDy=0;" edge="1" parent="1" source="la9Zs1Ly_CtsKW1PTPT4-23">
          <mxGeometry width="50" height="50" relative="1" as="geometry">
            <mxPoint x="170" y="250" as="sourcePoint" />
            <mxPoint x="220" y="200" as="targetPoint" />
          </mxGeometry>
        </mxCell>
        <mxCell id="la9Zs1Ly_CtsKW1PTPT4-71" value="" style="edgeStyle=orthogonalEdgeStyle;rounded=0;orthogonalLoop=1;jettySize=auto;html=1;" edge="1" parent="1" source="la9Zs1Ly_CtsKW1PTPT4-44" target="la9Zs1Ly_CtsKW1PTPT4-70">
          <mxGeometry relative="1" as="geometry" />
        </mxCell>
        <mxCell id="la9Zs1Ly_CtsKW1PTPT4-44" value="Initialize" style="rounded=1;whiteSpace=wrap;html=1;" vertex="1" parent="1">
          <mxGeometry x="160" y="260" width="120" height="40" as="geometry" />
        </mxCell>
        <mxCell id="la9Zs1Ly_CtsKW1PTPT4-45" value="" style="endArrow=none;html=1;rounded=0;exitX=0.5;exitY=0;exitDx=0;exitDy=0;" edge="1" parent="1" source="la9Zs1Ly_CtsKW1PTPT4-44">
          <mxGeometry width="50" height="50" relative="1" as="geometry">
            <mxPoint x="170" y="300" as="sourcePoint" />
            <mxPoint x="220" y="250" as="targetPoint" />
          </mxGeometry>
        </mxCell>
        <mxCell id="la9Zs1Ly_CtsKW1PTPT4-46" value="setPort" style="rounded=1;whiteSpace=wrap;html=1;" vertex="1" parent="1">
          <mxGeometry x="320" y="400" width="120" height="40" as="geometry" />
        </mxCell>
        <mxCell id="la9Zs1Ly_CtsKW1PTPT4-47" value="setHost" style="rounded=1;whiteSpace=wrap;html=1;" vertex="1" parent="1">
          <mxGeometry x="320" y="320" width="120" height="40" as="geometry" />
        </mxCell>
        <mxCell id="la9Zs1Ly_CtsKW1PTPT4-48" value="setDeviceId" style="rounded=1;whiteSpace=wrap;html=1;" vertex="1" parent="1">
          <mxGeometry x="320" y="480" width="120" height="40" as="geometry" />
        </mxCell>
        <mxCell id="la9Zs1Ly_CtsKW1PTPT4-49" value="" style="endArrow=none;html=1;rounded=0;exitX=0.5;exitY=0;exitDx=0;exitDy=0;" edge="1" parent="1">
          <mxGeometry width="50" height="50" relative="1" as="geometry">
            <mxPoint x="379.66" y="400" as="sourcePoint" />
            <mxPoint x="379.66" y="360" as="targetPoint" />
          </mxGeometry>
        </mxCell>
        <mxCell id="la9Zs1Ly_CtsKW1PTPT4-50" value="" style="endArrow=none;html=1;rounded=0;exitX=0.5;exitY=0;exitDx=0;exitDy=0;" edge="1" parent="1">
          <mxGeometry width="50" height="50" relative="1" as="geometry">
            <mxPoint x="379.66" y="480" as="sourcePoint" />
            <mxPoint x="379.66" y="440" as="targetPoint" />
          </mxGeometry>
        </mxCell>
        <mxCell id="la9Zs1Ly_CtsKW1PTPT4-51" value="" style="endArrow=classic;html=1;rounded=0;exitX=1;exitY=0.5;exitDx=0;exitDy=0;entryX=0;entryY=0.5;entryDx=0;entryDy=0;" edge="1" parent="1" source="la9Zs1Ly_CtsKW1PTPT4-13" target="la9Zs1Ly_CtsKW1PTPT4-47">
          <mxGeometry width="50" height="50" relative="1" as="geometry">
            <mxPoint x="210" y="410" as="sourcePoint" />
            <mxPoint x="260" y="360" as="targetPoint" />
          </mxGeometry>
        </mxCell>
        <mxCell id="la9Zs1Ly_CtsKW1PTPT4-52" value="" style="endArrow=classic;html=1;rounded=0;exitX=1;exitY=0.5;exitDx=0;exitDy=0;entryX=0;entryY=0.5;entryDx=0;entryDy=0;" edge="1" parent="1">
          <mxGeometry width="50" height="50" relative="1" as="geometry">
            <mxPoint x="120" y="419.5" as="sourcePoint" />
            <mxPoint x="320" y="419.5" as="targetPoint" />
          </mxGeometry>
        </mxCell>
        <mxCell id="la9Zs1Ly_CtsKW1PTPT4-53" value="" style="endArrow=classic;html=1;rounded=0;exitX=1;exitY=0.5;exitDx=0;exitDy=0;entryX=0;entryY=0.5;entryDx=0;entryDy=0;" edge="1" parent="1">
          <mxGeometry width="50" height="50" relative="1" as="geometry">
            <mxPoint x="120" y="499.5" as="sourcePoint" />
            <mxPoint x="320" y="499.5" as="targetPoint" />
          </mxGeometry>
        </mxCell>
        <mxCell id="la9Zs1Ly_CtsKW1PTPT4-54" value="" style="endArrow=none;html=1;rounded=0;exitX=0.5;exitY=0;exitDx=0;exitDy=0;" edge="1" parent="1" source="la9Zs1Ly_CtsKW1PTPT4-22">
          <mxGeometry width="50" height="50" relative="1" as="geometry">
            <mxPoint x="170" y="170" as="sourcePoint" />
            <mxPoint x="220" y="120" as="targetPoint" />
          </mxGeometry>
        </mxCell>
        <mxCell id="la9Zs1Ly_CtsKW1PTPT4-55" value="" style="endArrow=none;dashed=1;html=1;rounded=0;entryX=0.5;entryY=1;entryDx=0;entryDy=0;" edge="1" parent="1" target="la9Zs1Ly_CtsKW1PTPT4-44">
          <mxGeometry width="50" height="50" relative="1" as="geometry">
            <mxPoint x="220" y="1040" as="sourcePoint" />
            <mxPoint x="230" y="460" as="targetPoint" />
          </mxGeometry>
        </mxCell>
        <mxCell id="la9Zs1Ly_CtsKW1PTPT4-56" value="setUsername" style="rounded=1;whiteSpace=wrap;html=1;" vertex="1" parent="1">
          <mxGeometry x="320" y="560" width="120" height="40" as="geometry" />
        </mxCell>
        <mxCell id="la9Zs1Ly_CtsKW1PTPT4-58" value="setPassword" style="rounded=1;whiteSpace=wrap;html=1;" vertex="1" parent="1">
          <mxGeometry x="320" y="640" width="120" height="40" as="geometry" />
        </mxCell>
        <mxCell id="la9Zs1Ly_CtsKW1PTPT4-83" value="" style="edgeStyle=orthogonalEdgeStyle;rounded=0;orthogonalLoop=1;jettySize=auto;html=1;" edge="1" parent="1" source="la9Zs1Ly_CtsKW1PTPT4-60" target="la9Zs1Ly_CtsKW1PTPT4-82">
          <mxGeometry relative="1" as="geometry" />
        </mxCell>
        <mxCell id="la9Zs1Ly_CtsKW1PTPT4-60" value="login" style="rounded=1;whiteSpace=wrap;html=1;" vertex="1" parent="1">
          <mxGeometry x="320" y="720" width="120" height="40" as="geometry" />
        </mxCell>
        <mxCell id="la9Zs1Ly_CtsKW1PTPT4-85" value="" style="edgeStyle=orthogonalEdgeStyle;rounded=0;orthogonalLoop=1;jettySize=auto;html=1;" edge="1" parent="1" source="la9Zs1Ly_CtsKW1PTPT4-61" target="la9Zs1Ly_CtsKW1PTPT4-84">
          <mxGeometry relative="1" as="geometry" />
        </mxCell>
        <mxCell id="la9Zs1Ly_CtsKW1PTPT4-61" value="subscribe" style="rounded=1;whiteSpace=wrap;html=1;" vertex="1" parent="1">
          <mxGeometry x="320" y="800" width="120" height="40" as="geometry" />
        </mxCell>
        <mxCell id="la9Zs1Ly_CtsKW1PTPT4-87" value="" style="edgeStyle=orthogonalEdgeStyle;rounded=0;orthogonalLoop=1;jettySize=auto;html=1;" edge="1" parent="1" source="la9Zs1Ly_CtsKW1PTPT4-62" target="la9Zs1Ly_CtsKW1PTPT4-86">
          <mxGeometry relative="1" as="geometry" />
        </mxCell>
        <mxCell id="la9Zs1Ly_CtsKW1PTPT4-62" value="unsubscribe" style="rounded=1;whiteSpace=wrap;html=1;" vertex="1" parent="1">
          <mxGeometry x="320" y="880" width="120" height="40" as="geometry" />
        </mxCell>
        <mxCell id="la9Zs1Ly_CtsKW1PTPT4-89" value="" style="edgeStyle=orthogonalEdgeStyle;rounded=0;orthogonalLoop=1;jettySize=auto;html=1;" edge="1" parent="1" source="la9Zs1Ly_CtsKW1PTPT4-63" target="la9Zs1Ly_CtsKW1PTPT4-88">
          <mxGeometry relative="1" as="geometry" />
        </mxCell>
        <mxCell id="la9Zs1Ly_CtsKW1PTPT4-63" value="logout" style="rounded=1;whiteSpace=wrap;html=1;" vertex="1" parent="1">
          <mxGeometry x="320" y="960" width="120" height="40" as="geometry" />
        </mxCell>
        <mxCell id="la9Zs1Ly_CtsKW1PTPT4-64" value="" style="endArrow=classic;html=1;rounded=0;exitX=1;exitY=0.5;exitDx=0;exitDy=0;entryX=0;entryY=0.5;entryDx=0;entryDy=0;" edge="1" parent="1">
          <mxGeometry width="50" height="50" relative="1" as="geometry">
            <mxPoint x="120" y="579.5" as="sourcePoint" />
            <mxPoint x="320" y="579.5" as="targetPoint" />
          </mxGeometry>
        </mxCell>
        <mxCell id="la9Zs1Ly_CtsKW1PTPT4-65" value="" style="endArrow=classic;html=1;rounded=0;exitX=1;exitY=0.5;exitDx=0;exitDy=0;entryX=0;entryY=0.5;entryDx=0;entryDy=0;" edge="1" parent="1">
          <mxGeometry width="50" height="50" relative="1" as="geometry">
            <mxPoint x="120" y="659.5" as="sourcePoint" />
            <mxPoint x="320" y="659.5" as="targetPoint" />
          </mxGeometry>
        </mxCell>
        <mxCell id="la9Zs1Ly_CtsKW1PTPT4-66" value="" style="endArrow=classic;html=1;rounded=0;exitX=1;exitY=0.5;exitDx=0;exitDy=0;entryX=0;entryY=0.5;entryDx=0;entryDy=0;" edge="1" parent="1">
          <mxGeometry width="50" height="50" relative="1" as="geometry">
            <mxPoint x="120" y="739.5" as="sourcePoint" />
            <mxPoint x="320" y="739.5" as="targetPoint" />
          </mxGeometry>
        </mxCell>
        <mxCell id="la9Zs1Ly_CtsKW1PTPT4-67" value="" style="endArrow=classic;html=1;rounded=0;exitX=1;exitY=0.5;exitDx=0;exitDy=0;entryX=0;entryY=0.5;entryDx=0;entryDy=0;" edge="1" parent="1">
          <mxGeometry width="50" height="50" relative="1" as="geometry">
            <mxPoint x="120" y="819.5" as="sourcePoint" />
            <mxPoint x="320" y="819.5" as="targetPoint" />
          </mxGeometry>
        </mxCell>
        <mxCell id="la9Zs1Ly_CtsKW1PTPT4-68" value="" style="endArrow=classic;html=1;rounded=0;exitX=1;exitY=0.5;exitDx=0;exitDy=0;entryX=0;entryY=0.5;entryDx=0;entryDy=0;" edge="1" parent="1">
          <mxGeometry width="50" height="50" relative="1" as="geometry">
            <mxPoint x="120" y="899.29" as="sourcePoint" />
            <mxPoint x="320" y="899.29" as="targetPoint" />
          </mxGeometry>
        </mxCell>
        <mxCell id="la9Zs1Ly_CtsKW1PTPT4-69" value="" style="endArrow=classic;html=1;rounded=0;exitX=1;exitY=0.5;exitDx=0;exitDy=0;entryX=0;entryY=0.5;entryDx=0;entryDy=0;" edge="1" parent="1">
          <mxGeometry width="50" height="50" relative="1" as="geometry">
            <mxPoint x="120" y="979.29" as="sourcePoint" />
            <mxPoint x="320" y="979.29" as="targetPoint" />
          </mxGeometry>
        </mxCell>
        <mxCell id="la9Zs1Ly_CtsKW1PTPT4-70" value="Initialize" style="rounded=1;whiteSpace=wrap;html=1;" vertex="1" parent="1">
          <mxGeometry x="320" y="260" width="120" height="40" as="geometry" />
        </mxCell>
        <mxCell id="la9Zs1Ly_CtsKW1PTPT4-72" value="" style="endArrow=none;html=1;rounded=0;exitX=0.5;exitY=0;exitDx=0;exitDy=0;" edge="1" parent="1" source="la9Zs1Ly_CtsKW1PTPT4-70">
          <mxGeometry width="50" height="50" relative="1" as="geometry">
            <mxPoint x="330" y="170" as="sourcePoint" />
            <mxPoint x="380" y="120" as="targetPoint" />
          </mxGeometry>
        </mxCell>
        <mxCell id="la9Zs1Ly_CtsKW1PTPT4-73" value="" style="endArrow=none;dashed=1;html=1;rounded=0;" edge="1" parent="1">
          <mxGeometry width="50" height="50" relative="1" as="geometry">
            <mxPoint x="60" y="1040" as="sourcePoint" />
            <mxPoint x="60" y="1000" as="targetPoint" />
          </mxGeometry>
        </mxCell>
        <mxCell id="la9Zs1Ly_CtsKW1PTPT4-75" value="" style="endArrow=none;html=1;rounded=0;exitX=0.5;exitY=0;exitDx=0;exitDy=0;" edge="1" parent="1" source="la9Zs1Ly_CtsKW1PTPT4-47">
          <mxGeometry width="50" height="50" relative="1" as="geometry">
            <mxPoint x="330" y="350" as="sourcePoint" />
            <mxPoint x="380" y="300" as="targetPoint" />
          </mxGeometry>
        </mxCell>
        <mxCell id="la9Zs1Ly_CtsKW1PTPT4-76" value="" style="endArrow=none;html=1;rounded=0;exitX=0.5;exitY=0;exitDx=0;exitDy=0;" edge="1" parent="1">
          <mxGeometry width="50" height="50" relative="1" as="geometry">
            <mxPoint x="379.8" y="560" as="sourcePoint" />
            <mxPoint x="379.8" y="520" as="targetPoint" />
          </mxGeometry>
        </mxCell>
        <mxCell id="la9Zs1Ly_CtsKW1PTPT4-77" value="" style="endArrow=none;html=1;rounded=0;exitX=0.5;exitY=0;exitDx=0;exitDy=0;" edge="1" parent="1">
          <mxGeometry width="50" height="50" relative="1" as="geometry">
            <mxPoint x="379.8" y="640" as="sourcePoint" />
            <mxPoint x="379.8" y="600" as="targetPoint" />
          </mxGeometry>
        </mxCell>
        <mxCell id="la9Zs1Ly_CtsKW1PTPT4-78" value="" style="endArrow=none;html=1;rounded=0;exitX=0.5;exitY=0;exitDx=0;exitDy=0;" edge="1" parent="1">
          <mxGeometry width="50" height="50" relative="1" as="geometry">
            <mxPoint x="379.8" y="720" as="sourcePoint" />
            <mxPoint x="379.8" y="680" as="targetPoint" />
          </mxGeometry>
        </mxCell>
        <mxCell id="la9Zs1Ly_CtsKW1PTPT4-79" value="" style="endArrow=none;html=1;rounded=0;exitX=0.5;exitY=0;exitDx=0;exitDy=0;" edge="1" parent="1">
          <mxGeometry width="50" height="50" relative="1" as="geometry">
            <mxPoint x="379.8" y="800" as="sourcePoint" />
            <mxPoint x="379.8" y="760" as="targetPoint" />
          </mxGeometry>
        </mxCell>
        <mxCell id="la9Zs1Ly_CtsKW1PTPT4-80" value="" style="endArrow=none;html=1;rounded=0;exitX=0.5;exitY=0;exitDx=0;exitDy=0;" edge="1" parent="1">
          <mxGeometry width="50" height="50" relative="1" as="geometry">
            <mxPoint x="379.8" y="880" as="sourcePoint" />
            <mxPoint x="379.8" y="840" as="targetPoint" />
          </mxGeometry>
        </mxCell>
        <mxCell id="la9Zs1Ly_CtsKW1PTPT4-81" value="" style="endArrow=none;html=1;rounded=0;exitX=0.5;exitY=0;exitDx=0;exitDy=0;" edge="1" parent="1">
          <mxGeometry width="50" height="50" relative="1" as="geometry">
            <mxPoint x="379.8" y="960" as="sourcePoint" />
            <mxPoint x="379.8" y="920" as="targetPoint" />
          </mxGeometry>
        </mxCell>
        <mxCell id="la9Zs1Ly_CtsKW1PTPT4-82" value="login" style="rounded=1;whiteSpace=wrap;html=1;" vertex="1" parent="1">
          <mxGeometry x="500" y="720" width="120" height="40" as="geometry" />
        </mxCell>
        <mxCell id="la9Zs1Ly_CtsKW1PTPT4-84" value="subscribe" style="rounded=1;whiteSpace=wrap;html=1;" vertex="1" parent="1">
          <mxGeometry x="500" y="800" width="120" height="40" as="geometry" />
        </mxCell>
        <mxCell id="la9Zs1Ly_CtsKW1PTPT4-86" value="unsubscribe" style="rounded=1;whiteSpace=wrap;html=1;" vertex="1" parent="1">
          <mxGeometry x="500" y="880" width="120" height="40" as="geometry" />
        </mxCell>
        <mxCell id="la9Zs1Ly_CtsKW1PTPT4-88" value="logout" style="rounded=1;whiteSpace=wrap;html=1;" vertex="1" parent="1">
          <mxGeometry x="500" y="960" width="120" height="40" as="geometry" />
        </mxCell>
        <mxCell id="la9Zs1Ly_CtsKW1PTPT4-90" value="" style="endArrow=none;html=1;rounded=0;entryX=0.5;entryY=1;entryDx=0;entryDy=0;exitX=0.5;exitY=0;exitDx=0;exitDy=0;" edge="1" parent="1" source="la9Zs1Ly_CtsKW1PTPT4-82" target="la9Zs1Ly_CtsKW1PTPT4-4">
          <mxGeometry width="50" height="50" relative="1" as="geometry">
            <mxPoint x="570" y="550" as="sourcePoint" />
            <mxPoint x="620" y="500" as="targetPoint" />
          </mxGeometry>
        </mxCell>
        <mxCell id="la9Zs1Ly_CtsKW1PTPT4-92" value="" style="endArrow=none;html=1;rounded=0;exitX=0.5;exitY=0;exitDx=0;exitDy=0;" edge="1" parent="1" source="la9Zs1Ly_CtsKW1PTPT4-84">
          <mxGeometry width="50" height="50" relative="1" as="geometry">
            <mxPoint x="510" y="810" as="sourcePoint" />
            <mxPoint x="560" y="760" as="targetPoint" />
          </mxGeometry>
        </mxCell>
        <mxCell id="la9Zs1Ly_CtsKW1PTPT4-93" value="" style="endArrow=none;html=1;rounded=0;exitX=0.5;exitY=0;exitDx=0;exitDy=0;" edge="1" parent="1" source="la9Zs1Ly_CtsKW1PTPT4-86">
          <mxGeometry width="50" height="50" relative="1" as="geometry">
            <mxPoint x="510" y="890" as="sourcePoint" />
            <mxPoint x="560" y="840" as="targetPoint" />
          </mxGeometry>
        </mxCell>
        <mxCell id="la9Zs1Ly_CtsKW1PTPT4-94" value="" style="endArrow=none;html=1;rounded=0;exitX=0.5;exitY=0;exitDx=0;exitDy=0;" edge="1" parent="1" source="la9Zs1Ly_CtsKW1PTPT4-88">
          <mxGeometry width="50" height="50" relative="1" as="geometry">
            <mxPoint x="510" y="970" as="sourcePoint" />
            <mxPoint x="560" y="920" as="targetPoint" />
          </mxGeometry>
        </mxCell>
        <mxCell id="la9Zs1Ly_CtsKW1PTPT4-98" value="DisconnectCallback" style="rounded=1;whiteSpace=wrap;html=1;" vertex="1" parent="1">
          <mxGeometry x="320" y="1040" width="120" height="40" as="geometry" />
        </mxCell>
        <mxCell id="la9Zs1Ly_CtsKW1PTPT4-99" value="ReconnectCallback" style="rounded=1;whiteSpace=wrap;html=1;" vertex="1" parent="1">
          <mxGeometry x="320" y="1120" width="120" height="40" as="geometry" />
        </mxCell>
        <mxCell id="la9Zs1Ly_CtsKW1PTPT4-100" value="" style="endArrow=none;html=1;rounded=0;exitX=0.5;exitY=0;exitDx=0;exitDy=0;" edge="1" parent="1">
          <mxGeometry width="50" height="50" relative="1" as="geometry">
            <mxPoint x="379.71000000000004" y="1040" as="sourcePoint" />
            <mxPoint x="379.71000000000004" y="1000" as="targetPoint" />
          </mxGeometry>
        </mxCell>
        <mxCell id="la9Zs1Ly_CtsKW1PTPT4-101" value="" style="endArrow=none;html=1;rounded=0;exitX=0.5;exitY=0;exitDx=0;exitDy=0;" edge="1" parent="1">
          <mxGeometry width="50" height="50" relative="1" as="geometry">
            <mxPoint x="379.71000000000004" y="1120" as="sourcePoint" />
            <mxPoint x="379.71000000000004" y="1080" as="targetPoint" />
          </mxGeometry>
        </mxCell>
        <mxCell id="la9Zs1Ly_CtsKW1PTPT4-103" value="" style="endArrow=classic;html=1;rounded=0;exitX=1;exitY=0.5;exitDx=0;exitDy=0;entryX=1;entryY=0.5;entryDx=0;entryDy=0;" edge="1" parent="1" source="la9Zs1Ly_CtsKW1PTPT4-82" target="la9Zs1Ly_CtsKW1PTPT4-98">
          <mxGeometry width="50" height="50" relative="1" as="geometry">
            <mxPoint x="650" y="780" as="sourcePoint" />
            <mxPoint x="620" y="1060" as="targetPoint" />
            <Array as="points">
              <mxPoint x="630" y="740" />
              <mxPoint x="630" y="1060" />
            </Array>
          </mxGeometry>
        </mxCell>
        <mxCell id="la9Zs1Ly_CtsKW1PTPT4-104" value="" style="endArrow=classic;html=1;rounded=0;entryX=1;entryY=0.5;entryDx=0;entryDy=0;" edge="1" parent="1" target="la9Zs1Ly_CtsKW1PTPT4-99">
          <mxGeometry width="50" height="50" relative="1" as="geometry">
            <mxPoint x="630" y="1060" as="sourcePoint" />
            <mxPoint x="720" y="1060" as="targetPoint" />
            <Array as="points">
              <mxPoint x="630" y="1140" />
            </Array>
          </mxGeometry>
        </mxCell>
        <mxCell id="la9Zs1Ly_CtsKW1PTPT4-110" value="" style="edgeStyle=orthogonalEdgeStyle;rounded=0;orthogonalLoop=1;jettySize=auto;html=1;" edge="1" parent="1" source="la9Zs1Ly_CtsKW1PTPT4-106" target="la9Zs1Ly_CtsKW1PTPT4-109">
          <mxGeometry relative="1" as="geometry" />
        </mxCell>
        <mxCell id="la9Zs1Ly_CtsKW1PTPT4-106" value="DataCallback" style="rounded=1;whiteSpace=wrap;html=1;" vertex="1" parent="1">
          <mxGeometry x="320" y="1200" width="120" height="40" as="geometry" />
        </mxCell>
        <mxCell id="la9Zs1Ly_CtsKW1PTPT4-107" value="" style="endArrow=classic;html=1;rounded=0;entryX=1;entryY=0.5;entryDx=0;entryDy=0;" edge="1" parent="1" target="la9Zs1Ly_CtsKW1PTPT4-106">
          <mxGeometry width="50" height="50" relative="1" as="geometry">
            <mxPoint x="620" y="820" as="sourcePoint" />
            <mxPoint x="640" y="1220" as="targetPoint" />
            <Array as="points">
              <mxPoint x="640" y="820" />
              <mxPoint x="640" y="1220" />
            </Array>
          </mxGeometry>
        </mxCell>
        <mxCell id="la9Zs1Ly_CtsKW1PTPT4-108" value="" style="endArrow=none;html=1;rounded=0;exitX=0.5;exitY=0;exitDx=0;exitDy=0;" edge="1" parent="1">
          <mxGeometry width="50" height="50" relative="1" as="geometry">
            <mxPoint x="379.57000000000005" y="1200" as="sourcePoint" />
            <mxPoint x="379.57000000000005" y="1160" as="targetPoint" />
          </mxGeometry>
        </mxCell>
        <mxCell id="la9Zs1Ly_CtsKW1PTPT4-109" value="setDataToBackend" style="rounded=1;whiteSpace=wrap;html=1;" vertex="1" parent="1">
          <mxGeometry x="320" y="1280" width="120" height="40" as="geometry" />
        </mxCell>
        <mxCell id="la9Zs1Ly_CtsKW1PTPT4-111" value="&amp;nbsp;" style="text;whiteSpace=wrap;html=1;" vertex="1" parent="1">
          <mxGeometry x="220" y="540" width="40" height="40" as="geometry" />
        </mxCell>
        <mxCell id="la9Zs1Ly_CtsKW1PTPT4-112" value="&amp;nbsp;" style="text;whiteSpace=wrap;html=1;" vertex="1" parent="1">
          <mxGeometry x="-360" y="490" width="40" height="40" as="geometry" />
        </mxCell>
        <mxCell id="la9Zs1Ly_CtsKW1PTPT4-113" value="&amp;nbsp;" style="text;whiteSpace=wrap;html=1;" vertex="1" parent="1">
          <mxGeometry x="-820" y="230" width="40" height="40" as="geometry" />
        </mxCell>
        <mxCell id="la9Zs1Ly_CtsKW1PTPT4-115" value="" style="endArrow=none;html=1;rounded=0;entryX=0.5;entryY=1;entryDx=0;entryDy=0;" edge="1" parent="1" target="la9Zs1Ly_CtsKW1PTPT4-5">
          <mxGeometry width="50" height="50" relative="1" as="geometry">
            <mxPoint x="740" y="460" as="sourcePoint" />
            <mxPoint x="890" y="480" as="targetPoint" />
          </mxGeometry>
        </mxCell>
        <mxCell id="la9Zs1Ly_CtsKW1PTPT4-116" value="createThread" style="rounded=1;whiteSpace=wrap;html=1;" vertex="1" parent="1">
          <mxGeometry x="680" y="440" width="120" height="40" as="geometry" />
        </mxCell>
        <mxCell id="la9Zs1Ly_CtsKW1PTPT4-117" value="callWebSocket" style="rounded=1;whiteSpace=wrap;html=1;" vertex="1" parent="1">
          <mxGeometry x="680" y="520" width="120" height="40" as="geometry" />
        </mxCell>
        <mxCell id="la9Zs1Ly_CtsKW1PTPT4-118" value="ExitThread" style="rounded=1;whiteSpace=wrap;html=1;" vertex="1" parent="1">
          <mxGeometry x="680" y="600" width="120" height="40" as="geometry" />
        </mxCell>
        <mxCell id="la9Zs1Ly_CtsKW1PTPT4-120" value="" style="endArrow=classic;html=1;rounded=0;entryX=0;entryY=0.5;entryDx=0;entryDy=0;" edge="1" parent="1" target="la9Zs1Ly_CtsKW1PTPT4-116">
          <mxGeometry width="50" height="50" relative="1" as="geometry">
            <mxPoint x="440" y="1300" as="sourcePoint" />
            <mxPoint x="670" y="460" as="targetPoint" />
            <Array as="points">
              <mxPoint x="660" y="1300" />
              <mxPoint x="660" y="460" />
            </Array>
          </mxGeometry>
        </mxCell>
        <mxCell id="la9Zs1Ly_CtsKW1PTPT4-121" value="" style="endArrow=classic;html=1;rounded=0;entryX=0;entryY=0.5;entryDx=0;entryDy=0;" edge="1" parent="1" target="la9Zs1Ly_CtsKW1PTPT4-117">
          <mxGeometry width="50" height="50" relative="1" as="geometry">
            <mxPoint x="660" y="540" as="sourcePoint" />
            <mxPoint x="800" y="650" as="targetPoint" />
          </mxGeometry>
        </mxCell>
        <mxCell id="la9Zs1Ly_CtsKW1PTPT4-122" value="" style="endArrow=classic;html=1;rounded=0;" edge="1" parent="1">
          <mxGeometry width="50" height="50" relative="1" as="geometry">
            <mxPoint x="660" y="620" as="sourcePoint" />
            <mxPoint x="680" y="620" as="targetPoint" />
          </mxGeometry>
        </mxCell>
        <mxCell id="la9Zs1Ly_CtsKW1PTPT4-123" value="" style="endArrow=none;html=1;rounded=0;exitX=0.5;exitY=0;exitDx=0;exitDy=0;" edge="1" parent="1" source="la9Zs1Ly_CtsKW1PTPT4-117">
          <mxGeometry width="50" height="50" relative="1" as="geometry">
            <mxPoint x="690" y="530" as="sourcePoint" />
            <mxPoint x="740" y="480" as="targetPoint" />
          </mxGeometry>
        </mxCell>
        <mxCell id="la9Zs1Ly_CtsKW1PTPT4-124" value="" style="endArrow=none;html=1;rounded=0;exitX=0.5;exitY=0;exitDx=0;exitDy=0;" edge="1" parent="1">
          <mxGeometry width="50" height="50" relative="1" as="geometry">
            <mxPoint x="739.57" y="600" as="sourcePoint" />
            <mxPoint x="739.57" y="560" as="targetPoint" />
          </mxGeometry>
        </mxCell>
        <mxCell id="la9Zs1Ly_CtsKW1PTPT4-136" value="" style="endArrow=none;dashed=1;html=1;rounded=0;" edge="1" parent="1">
          <mxGeometry width="50" height="50" relative="1" as="geometry">
            <mxPoint x="740" y="680" as="sourcePoint" />
            <mxPoint x="740" y="640" as="targetPoint" />
          </mxGeometry>
        </mxCell>
        <mxCell id="la9Zs1Ly_CtsKW1PTPT4-138" value="" style="endArrow=none;dashed=1;html=1;rounded=0;" edge="1" parent="1">
          <mxGeometry width="50" height="50" relative="1" as="geometry">
            <mxPoint x="380" y="1370" as="sourcePoint" />
            <mxPoint x="380" y="1320" as="targetPoint" />
          </mxGeometry>
        </mxCell>
        <mxCell id="la9Zs1Ly_CtsKW1PTPT4-139" value="" style="endArrow=none;dashed=1;html=1;rounded=0;" edge="1" parent="1">
          <mxGeometry width="50" height="50" relative="1" as="geometry">
            <mxPoint x="560" y="1040" as="sourcePoint" />
            <mxPoint x="560" y="1000" as="targetPoint" />
          </mxGeometry>
        </mxCell>
        <mxCell id="la9Zs1Ly_CtsKW1PTPT4-140" value="dahua_event_controller" style="rounded=0;whiteSpace=wrap;html=1;" vertex="1" parent="1">
          <mxGeometry x="890" y="80" width="140" height="40" as="geometry" />
        </mxCell>
        <mxCell id="la9Zs1Ly_CtsKW1PTPT4-151" value="" style="edgeStyle=orthogonalEdgeStyle;rounded=0;orthogonalLoop=1;jettySize=auto;html=1;entryX=0;entryY=0.5;entryDx=0;entryDy=0;" edge="1" parent="1" source="la9Zs1Ly_CtsKW1PTPT4-141" target="la9Zs1Ly_CtsKW1PTPT4-149">
          <mxGeometry relative="1" as="geometry">
            <mxPoint x="1120" y="180" as="targetPoint" />
          </mxGeometry>
        </mxCell>
        <mxCell id="la9Zs1Ly_CtsKW1PTPT4-141" value="saveFaceDetection" style="rounded=1;whiteSpace=wrap;html=1;" vertex="1" parent="1">
          <mxGeometry x="900" y="160" width="120" height="40" as="geometry" />
        </mxCell>
        <mxCell id="la9Zs1Ly_CtsKW1PTPT4-160" value="" style="edgeStyle=orthogonalEdgeStyle;rounded=0;orthogonalLoop=1;jettySize=auto;html=1;entryX=0;entryY=0.5;entryDx=0;entryDy=0;" edge="1" parent="1" source="la9Zs1Ly_CtsKW1PTPT4-142" target="la9Zs1Ly_CtsKW1PTPT4-158">
          <mxGeometry relative="1" as="geometry">
            <mxPoint x="1120" y="260" as="targetPoint" />
          </mxGeometry>
        </mxCell>
        <mxCell id="la9Zs1Ly_CtsKW1PTPT4-142" value="saveFaceRecognition" style="rounded=1;whiteSpace=wrap;html=1;" vertex="1" parent="1">
          <mxGeometry x="900" y="240" width="120" height="40" as="geometry" />
        </mxCell>
        <mxCell id="la9Zs1Ly_CtsKW1PTPT4-166" value="" style="edgeStyle=orthogonalEdgeStyle;rounded=0;orthogonalLoop=1;jettySize=auto;html=1;" edge="1" parent="1" source="la9Zs1Ly_CtsKW1PTPT4-143" target="la9Zs1Ly_CtsKW1PTPT4-144">
          <mxGeometry relative="1" as="geometry" />
        </mxCell>
        <mxCell id="la9Zs1Ly_CtsKW1PTPT4-172" style="edgeStyle=orthogonalEdgeStyle;rounded=0;orthogonalLoop=1;jettySize=auto;html=1;entryX=0;entryY=0.5;entryDx=0;entryDy=0;" edge="1" parent="1" source="la9Zs1Ly_CtsKW1PTPT4-143" target="la9Zs1Ly_CtsKW1PTPT4-170">
          <mxGeometry relative="1" as="geometry" />
        </mxCell>
        <mxCell id="la9Zs1Ly_CtsKW1PTPT4-143" value="setIsRecognized" style="rounded=1;whiteSpace=wrap;html=1;" vertex="1" parent="1">
          <mxGeometry x="900" y="320" width="120" height="40" as="geometry" />
        </mxCell>
        <mxCell id="la9Zs1Ly_CtsKW1PTPT4-168" style="edgeStyle=orthogonalEdgeStyle;rounded=0;orthogonalLoop=1;jettySize=auto;html=1;entryX=0;entryY=0.5;entryDx=0;entryDy=0;" edge="1" parent="1" source="la9Zs1Ly_CtsKW1PTPT4-144" target="la9Zs1Ly_CtsKW1PTPT4-167">
          <mxGeometry relative="1" as="geometry" />
        </mxCell>
        <mxCell id="la9Zs1Ly_CtsKW1PTPT4-144" value="capture" style="rounded=1;whiteSpace=wrap;html=1;" vertex="1" parent="1">
          <mxGeometry x="900" y="400" width="120" height="40" as="geometry" />
        </mxCell>
        <mxCell id="la9Zs1Ly_CtsKW1PTPT4-145" value="" style="endArrow=classic;html=1;rounded=0;entryX=-0.022;entryY=0.517;entryDx=0;entryDy=0;entryPerimeter=0;" edge="1" parent="1" target="la9Zs1Ly_CtsKW1PTPT4-141">
          <mxGeometry width="50" height="50" relative="1" as="geometry">
            <mxPoint x="320" y="1220" as="sourcePoint" />
            <mxPoint x="1000" y="180" as="targetPoint" />
            <Array as="points">
              <mxPoint x="240" y="1220" />
              <mxPoint x="240" y="1360" />
              <mxPoint x="830" y="1360" />
              <mxPoint x="830" y="181" />
            </Array>
          </mxGeometry>
        </mxCell>
        <mxCell id="la9Zs1Ly_CtsKW1PTPT4-146" value="" style="endArrow=classic;html=1;rounded=0;entryX=0;entryY=0.5;entryDx=0;entryDy=0;" edge="1" parent="1" target="la9Zs1Ly_CtsKW1PTPT4-142">
          <mxGeometry width="50" height="50" relative="1" as="geometry">
            <mxPoint x="830" y="260" as="sourcePoint" />
            <mxPoint x="950" y="390" as="targetPoint" />
          </mxGeometry>
        </mxCell>
        <mxCell id="la9Zs1Ly_CtsKW1PTPT4-147" value="" style="endArrow=classic;html=1;rounded=0;entryX=0;entryY=0.5;entryDx=0;entryDy=0;" edge="1" parent="1" target="la9Zs1Ly_CtsKW1PTPT4-143">
          <mxGeometry width="50" height="50" relative="1" as="geometry">
            <mxPoint x="830" y="340" as="sourcePoint" />
            <mxPoint x="950" y="390" as="targetPoint" />
          </mxGeometry>
        </mxCell>
        <mxCell id="la9Zs1Ly_CtsKW1PTPT4-148" value="" style="endArrow=classic;html=1;rounded=0;entryX=0;entryY=0.5;entryDx=0;entryDy=0;" edge="1" parent="1" target="la9Zs1Ly_CtsKW1PTPT4-144">
          <mxGeometry width="50" height="50" relative="1" as="geometry">
            <mxPoint x="830" y="420" as="sourcePoint" />
            <mxPoint x="950" y="390" as="targetPoint" />
          </mxGeometry>
        </mxCell>
        <mxCell id="la9Zs1Ly_CtsKW1PTPT4-149" value="setFaceDataInfo" style="rounded=1;whiteSpace=wrap;html=1;" vertex="1" parent="1">
          <mxGeometry x="1230" y="160" width="120" height="40" as="geometry" />
        </mxCell>
        <mxCell id="la9Zs1Ly_CtsKW1PTPT4-152" value="" style="endArrow=none;html=1;rounded=0;exitX=0.5;exitY=0;exitDx=0;exitDy=0;" edge="1" parent="1" source="la9Zs1Ly_CtsKW1PTPT4-141">
          <mxGeometry width="50" height="50" relative="1" as="geometry">
            <mxPoint x="910" y="170" as="sourcePoint" />
            <mxPoint x="960" y="120" as="targetPoint" />
          </mxGeometry>
        </mxCell>
        <mxCell id="la9Zs1Ly_CtsKW1PTPT4-153" value="" style="endArrow=none;html=1;rounded=0;exitX=0.5;exitY=0;exitDx=0;exitDy=0;" edge="1" parent="1">
          <mxGeometry width="50" height="50" relative="1" as="geometry">
            <mxPoint x="959.5" y="240" as="sourcePoint" />
            <mxPoint x="959.5" y="200" as="targetPoint" />
          </mxGeometry>
        </mxCell>
        <mxCell id="la9Zs1Ly_CtsKW1PTPT4-154" value="" style="endArrow=none;html=1;rounded=0;exitX=0.5;exitY=0;exitDx=0;exitDy=0;" edge="1" parent="1">
          <mxGeometry width="50" height="50" relative="1" as="geometry">
            <mxPoint x="959.5" y="320" as="sourcePoint" />
            <mxPoint x="959.5" y="280" as="targetPoint" />
          </mxGeometry>
        </mxCell>
        <mxCell id="la9Zs1Ly_CtsKW1PTPT4-156" value="" style="endArrow=none;html=1;rounded=0;exitX=0.5;exitY=0;exitDx=0;exitDy=0;" edge="1" parent="1">
          <mxGeometry width="50" height="50" relative="1" as="geometry">
            <mxPoint x="1289.5" y="160" as="sourcePoint" />
            <mxPoint x="1289.5" y="120" as="targetPoint" />
          </mxGeometry>
        </mxCell>
        <mxCell id="la9Zs1Ly_CtsKW1PTPT4-158" value="setRecognitionDataInfo" style="rounded=1;whiteSpace=wrap;html=1;" vertex="1" parent="1">
          <mxGeometry x="1230" y="240" width="140" height="40" as="geometry" />
        </mxCell>
        <mxCell id="la9Zs1Ly_CtsKW1PTPT4-165" value="" style="endArrow=none;html=1;rounded=0;exitX=0.5;exitY=0;exitDx=0;exitDy=0;" edge="1" parent="1">
          <mxGeometry width="50" height="50" relative="1" as="geometry">
            <mxPoint x="1289.8" y="240" as="sourcePoint" />
            <mxPoint x="1289.8" y="200" as="targetPoint" />
          </mxGeometry>
        </mxCell>
        <mxCell id="la9Zs1Ly_CtsKW1PTPT4-167" value="setImgpath" style="rounded=1;whiteSpace=wrap;html=1;" vertex="1" parent="1">
          <mxGeometry x="1240" y="400" width="100" height="40" as="geometry" />
        </mxCell>
        <mxCell id="la9Zs1Ly_CtsKW1PTPT4-169" value="" style="endArrow=none;html=1;rounded=0;" edge="1" parent="1">
          <mxGeometry width="50" height="50" relative="1" as="geometry">
            <mxPoint x="1290" y="400" as="sourcePoint" />
            <mxPoint x="1289.6599999999999" y="280" as="targetPoint" />
          </mxGeometry>
        </mxCell>
        <mxCell id="la9Zs1Ly_CtsKW1PTPT4-170" value="setIsRecognized" style="rounded=1;whiteSpace=wrap;html=1;" vertex="1" parent="1">
          <mxGeometry x="1230" y="320" width="140" height="40" as="geometry" />
        </mxCell>
        <mxCell id="la9Zs1Ly_CtsKW1PTPT4-178" style="edgeStyle=orthogonalEdgeStyle;rounded=0;orthogonalLoop=1;jettySize=auto;html=1;entryX=0;entryY=0.5;entryDx=0;entryDy=0;" edge="1" parent="1" source="la9Zs1Ly_CtsKW1PTPT4-173" target="la9Zs1Ly_CtsKW1PTPT4-177">
          <mxGeometry relative="1" as="geometry" />
        </mxCell>
        <mxCell id="la9Zs1Ly_CtsKW1PTPT4-173" value="setCallBack" style="rounded=1;whiteSpace=wrap;html=1;" vertex="1" parent="1">
          <mxGeometry x="900" y="480" width="120" height="40" as="geometry" />
        </mxCell>
        <mxCell id="la9Zs1Ly_CtsKW1PTPT4-175" value="" style="endArrow=none;html=1;rounded=0;exitX=0.5;exitY=0;exitDx=0;exitDy=0;" edge="1" parent="1">
          <mxGeometry width="50" height="50" relative="1" as="geometry">
            <mxPoint x="959.71" y="480" as="sourcePoint" />
            <mxPoint x="959.71" y="440" as="targetPoint" />
          </mxGeometry>
        </mxCell>
        <mxCell id="la9Zs1Ly_CtsKW1PTPT4-176" value="" style="endArrow=classic;html=1;rounded=0;entryX=0;entryY=0.5;entryDx=0;entryDy=0;" edge="1" parent="1" target="la9Zs1Ly_CtsKW1PTPT4-173">
          <mxGeometry width="50" height="50" relative="1" as="geometry">
            <mxPoint x="830" y="500" as="sourcePoint" />
            <mxPoint x="920" y="450" as="targetPoint" />
          </mxGeometry>
        </mxCell>
        <mxCell id="la9Zs1Ly_CtsKW1PTPT4-177" value="setCallBack" style="rounded=1;whiteSpace=wrap;html=1;" vertex="1" parent="1">
          <mxGeometry x="1240" y="480" width="100" height="40" as="geometry" />
        </mxCell>
        <mxCell id="la9Zs1Ly_CtsKW1PTPT4-179" value="" style="endArrow=none;html=1;rounded=0;exitX=0.5;exitY=0;exitDx=0;exitDy=0;" edge="1" parent="1" source="la9Zs1Ly_CtsKW1PTPT4-177">
          <mxGeometry width="50" height="50" relative="1" as="geometry">
            <mxPoint x="1290.05" y="560" as="sourcePoint" />
            <mxPoint x="1289.7099999999998" y="440" as="targetPoint" />
          </mxGeometry>
        </mxCell>
        <mxCell id="la9Zs1Ly_CtsKW1PTPT4-180" value="Device_Agent " style="rounded=0;whiteSpace=wrap;html=1;" vertex="1" parent="1">
          <mxGeometry x="910" y="580" width="120" height="40" as="geometry" />
        </mxCell>
        <mxCell id="la9Zs1Ly_CtsKW1PTPT4-181" value="callBack" style="rounded=1;whiteSpace=wrap;html=1;" vertex="1" parent="1">
          <mxGeometry x="910" y="660" width="120" height="40" as="geometry" />
        </mxCell>
        <mxCell id="la9Zs1Ly_CtsKW1PTPT4-182" value="I_camera" style="rounded=0;whiteSpace=wrap;html=1;" vertex="1" parent="1">
          <mxGeometry x="1250" y="580" width="120" height="40" as="geometry" />
        </mxCell>
        <mxCell id="la9Zs1Ly_CtsKW1PTPT4-183" value="" style="endArrow=classic;html=1;rounded=0;exitX=1;exitY=0.5;exitDx=0;exitDy=0;" edge="1" parent="1" source="la9Zs1Ly_CtsKW1PTPT4-181">
          <mxGeometry width="50" height="50" relative="1" as="geometry">
            <mxPoint x="1060" y="670" as="sourcePoint" />
            <mxPoint x="1100" y="680" as="targetPoint" />
          </mxGeometry>
        </mxCell>
        <mxCell id="la9Zs1Ly_CtsKW1PTPT4-185" value="setCallBack" style="rounded=1;whiteSpace=wrap;html=1;" vertex="1" parent="1">
          <mxGeometry x="910" y="780" width="120" height="40" as="geometry" />
        </mxCell>
        <mxCell id="la9Zs1Ly_CtsKW1PTPT4-186" value="" style="endArrow=classic;html=1;rounded=0;" edge="1" parent="1">
          <mxGeometry width="50" height="50" relative="1" as="geometry">
            <mxPoint x="1030" y="800" as="sourcePoint" />
            <mxPoint x="1100" y="800" as="targetPoint" />
          </mxGeometry>
        </mxCell>
        <mxCell id="la9Zs1Ly_CtsKW1PTPT4-187" value="generateMetadataWithBestShot" style="rounded=1;whiteSpace=wrap;html=1;" vertex="1" parent="1">
          <mxGeometry x="910" y="860" width="190" height="40" as="geometry" />
        </mxCell>
        <mxCell id="la9Zs1Ly_CtsKW1PTPT4-188" value="generateImageBestShot" style="rounded=1;whiteSpace=wrap;html=1;" vertex="1" parent="1">
          <mxGeometry x="910" y="940" width="190" height="40" as="geometry" />
        </mxCell>
        <mxCell id="la9Zs1Ly_CtsKW1PTPT4-189" value="imgpath" style="rounded=1;whiteSpace=wrap;html=1;" vertex="1" parent="1">
          <mxGeometry x="940" y="1020" width="90" height="40" as="geometry" />
        </mxCell>
        <mxCell id="la9Zs1Ly_CtsKW1PTPT4-190" value="" style="endArrow=classic;html=1;rounded=0;" edge="1" parent="1">
          <mxGeometry width="50" height="50" relative="1" as="geometry">
            <mxPoint x="1030" y="1039.57" as="sourcePoint" />
            <mxPoint x="1100" y="1039.57" as="targetPoint" />
          </mxGeometry>
        </mxCell>
        <mxCell id="la9Zs1Ly_CtsKW1PTPT4-191" value="" style="endArrow=classic;html=1;rounded=0;" edge="1" parent="1">
          <mxGeometry width="50" height="50" relative="1" as="geometry">
            <mxPoint x="1260" y="1059.13" as="sourcePoint" />
            <mxPoint x="1190" y="1059.13" as="targetPoint" />
          </mxGeometry>
        </mxCell>
        <mxCell id="la9Zs1Ly_CtsKW1PTPT4-192" value="generateObjectMetadataPacket" style="rounded=1;whiteSpace=wrap;html=1;" vertex="1" parent="1">
          <mxGeometry x="910" y="1100" width="190" height="40" as="geometry" />
        </mxCell>
        <mxCell id="la9Zs1Ly_CtsKW1PTPT4-193" value="FaceRecognitionObj" style="rounded=1;whiteSpace=wrap;html=1;" vertex="1" parent="1">
          <mxGeometry x="910" y="1180" width="120" height="40" as="geometry" />
        </mxCell>
        <mxCell id="la9Zs1Ly_CtsKW1PTPT4-194" value="" style="endArrow=classic;html=1;rounded=0;" edge="1" parent="1">
          <mxGeometry width="50" height="50" relative="1" as="geometry">
            <mxPoint x="1030" y="1199.57" as="sourcePoint" />
            <mxPoint x="1100" y="1199.57" as="targetPoint" />
          </mxGeometry>
        </mxCell>
        <mxCell id="la9Zs1Ly_CtsKW1PTPT4-195" value="" style="endArrow=none;dashed=1;html=1;rounded=0;entryX=0.5;entryY=1;entryDx=0;entryDy=0;exitX=0.415;exitY=-0.004;exitDx=0;exitDy=0;exitPerimeter=0;" edge="1" parent="1" source="la9Zs1Ly_CtsKW1PTPT4-196" target="la9Zs1Ly_CtsKW1PTPT4-9">
          <mxGeometry width="50" height="50" relative="1" as="geometry">
            <mxPoint x="1140" y="1190" as="sourcePoint" />
            <mxPoint x="1110" y="650" as="targetPoint" />
          </mxGeometry>
        </mxCell>
        <mxCell id="la9Zs1Ly_CtsKW1PTPT4-196" value="makeAttributes" style="rounded=1;whiteSpace=wrap;html=1;" vertex="1" parent="1">
          <mxGeometry x="1090" y="1220" width="120" height="40" as="geometry" />
        </mxCell>
        <mxCell id="la9Zs1Ly_CtsKW1PTPT4-197" value="faceDataInfo" style="rounded=1;whiteSpace=wrap;html=1;" vertex="1" parent="1">
          <mxGeometry x="1090" y="1300" width="120" height="40" as="geometry" />
        </mxCell>
        <mxCell id="la9Zs1Ly_CtsKW1PTPT4-198" value="" style="endArrow=classic;html=1;rounded=0;" edge="1" parent="1">
          <mxGeometry width="50" height="50" relative="1" as="geometry">
            <mxPoint x="1210" y="1319.5599999999997" as="sourcePoint" />
            <mxPoint x="1250" y="1319.09" as="targetPoint" />
          </mxGeometry>
        </mxCell>
        <mxCell id="la9Zs1Ly_CtsKW1PTPT4-199" value="" style="endArrow=classic;html=1;rounded=0;" edge="1" parent="1">
          <mxGeometry width="50" height="50" relative="1" as="geometry">
            <mxPoint x="1270" y="1350" as="sourcePoint" />
            <mxPoint x="1200" y="1350" as="targetPoint" />
          </mxGeometry>
        </mxCell>
        <mxCell id="la9Zs1Ly_CtsKW1PTPT4-200" value="" style="endArrow=classic;html=1;rounded=0;" edge="1" parent="1">
          <mxGeometry width="50" height="50" relative="1" as="geometry">
            <mxPoint x="1270" y="1409.52" as="sourcePoint" />
            <mxPoint x="1200" y="1409.52" as="targetPoint" />
          </mxGeometry>
        </mxCell>
        <mxCell id="la9Zs1Ly_CtsKW1PTPT4-203" value="setCallBack" style="rounded=1;whiteSpace=wrap;html=1;" vertex="1" parent="1">
          <mxGeometry x="1250" y="720" width="120" height="40" as="geometry" />
        </mxCell>
        <mxCell id="la9Zs1Ly_CtsKW1PTPT4-205" value="" style="endArrow=classic;html=1;rounded=0;exitX=-0.029;exitY=0.517;exitDx=0;exitDy=0;exitPerimeter=0;" edge="1" parent="1" source="la9Zs1Ly_CtsKW1PTPT4-203">
          <mxGeometry width="50" height="50" relative="1" as="geometry">
            <mxPoint x="1110" y="770" as="sourcePoint" />
            <mxPoint x="1190" y="741" as="targetPoint" />
          </mxGeometry>
        </mxCell>
        <mxCell id="la9Zs1Ly_CtsKW1PTPT4-206" value="setImgpath" style="rounded=1;whiteSpace=wrap;html=1;" vertex="1" parent="1">
          <mxGeometry x="1260" y="1040" width="100" height="40" as="geometry" />
        </mxCell>
        <mxCell id="la9Zs1Ly_CtsKW1PTPT4-207" value="setFaceDataInfo" style="rounded=1;whiteSpace=wrap;html=1;" vertex="1" parent="1">
          <mxGeometry x="1270" y="1330" width="120" height="40" as="geometry" />
        </mxCell>
        <mxCell id="la9Zs1Ly_CtsKW1PTPT4-208" value="setRecognitionDataInfo" style="rounded=1;whiteSpace=wrap;html=1;" vertex="1" parent="1">
          <mxGeometry x="1270" y="1390" width="140" height="40" as="geometry" />
        </mxCell>
        <mxCell id="la9Zs1Ly_CtsKW1PTPT4-209" value="recognitionDataInfo" style="rounded=1;whiteSpace=wrap;html=1;" vertex="1" parent="1">
          <mxGeometry x="1090" y="1360" width="120" height="40" as="geometry" />
        </mxCell>
        <mxCell id="la9Zs1Ly_CtsKW1PTPT4-210" value="" style="endArrow=classic;html=1;rounded=0;" edge="1" parent="1">
          <mxGeometry width="50" height="50" relative="1" as="geometry">
            <mxPoint x="1210" y="1380.4699999999998" as="sourcePoint" />
            <mxPoint x="1250" y="1380" as="targetPoint" />
          </mxGeometry>
        </mxCell>
        <mxCell id="la9Zs1Ly_CtsKW1PTPT4-212" value="" style="endArrow=none;html=1;rounded=0;" edge="1" parent="1">
          <mxGeometry width="50" height="50" relative="1" as="geometry">
            <mxPoint x="880" y="1460" as="sourcePoint" />
            <mxPoint x="880" y="550" as="targetPoint" />
          </mxGeometry>
        </mxCell>
        <mxCell id="la9Zs1Ly_CtsKW1PTPT4-213" value="" style="endArrow=none;html=1;rounded=0;" edge="1" parent="1">
          <mxGeometry width="50" height="50" relative="1" as="geometry">
            <mxPoint x="880" y="550" as="sourcePoint" />
            <mxPoint x="1470" y="550" as="targetPoint" />
          </mxGeometry>
        </mxCell>
        <mxCell id="la9Zs1Ly_CtsKW1PTPT4-214" value="" style="endArrow=none;html=1;rounded=0;" edge="1" parent="1">
          <mxGeometry width="50" height="50" relative="1" as="geometry">
            <mxPoint x="880" y="1460" as="sourcePoint" />
            <mxPoint x="1480" y="1460" as="targetPoint" />
          </mxGeometry>
        </mxCell>
        <mxCell id="la9Zs1Ly_CtsKW1PTPT4-215" value="" style="endArrow=none;html=1;rounded=0;" edge="1" parent="1">
          <mxGeometry width="50" height="50" relative="1" as="geometry">
            <mxPoint x="1480" y="1460" as="sourcePoint" />
            <mxPoint x="1470" y="550" as="targetPoint" />
          </mxGeometry>
        </mxCell>
        <mxCell id="la9Zs1Ly_CtsKW1PTPT4-216" value="" style="endArrow=none;html=1;rounded=0;exitX=0.5;exitY=0;exitDx=0;exitDy=0;" edge="1" parent="1" source="la9Zs1Ly_CtsKW1PTPT4-181">
          <mxGeometry width="50" height="50" relative="1" as="geometry">
            <mxPoint x="920" y="670" as="sourcePoint" />
            <mxPoint x="970" y="620" as="targetPoint" />
          </mxGeometry>
        </mxCell>
        <mxCell id="la9Zs1Ly_CtsKW1PTPT4-217" value="" style="endArrow=none;html=1;rounded=0;exitX=0.5;exitY=0;exitDx=0;exitDy=0;" edge="1" parent="1" source="la9Zs1Ly_CtsKW1PTPT4-185">
          <mxGeometry width="50" height="50" relative="1" as="geometry">
            <mxPoint x="969.7" y="740" as="sourcePoint" />
            <mxPoint x="969.7" y="700" as="targetPoint" />
          </mxGeometry>
        </mxCell>
        <mxCell id="la9Zs1Ly_CtsKW1PTPT4-218" value="" style="endArrow=none;html=1;rounded=0;exitX=0.5;exitY=0;exitDx=0;exitDy=0;" edge="1" parent="1">
          <mxGeometry width="50" height="50" relative="1" as="geometry">
            <mxPoint x="969.7" y="860" as="sourcePoint" />
            <mxPoint x="969.7" y="820" as="targetPoint" />
          </mxGeometry>
        </mxCell>
        <mxCell id="la9Zs1Ly_CtsKW1PTPT4-219" value="" style="endArrow=none;html=1;rounded=0;exitX=0.5;exitY=0;exitDx=0;exitDy=0;" edge="1" parent="1">
          <mxGeometry width="50" height="50" relative="1" as="geometry">
            <mxPoint x="969.7" y="940" as="sourcePoint" />
            <mxPoint x="969.7" y="900" as="targetPoint" />
          </mxGeometry>
        </mxCell>
        <mxCell id="la9Zs1Ly_CtsKW1PTPT4-220" value="" style="endArrow=none;html=1;rounded=0;exitX=0.5;exitY=0;exitDx=0;exitDy=0;" edge="1" parent="1">
          <mxGeometry width="50" height="50" relative="1" as="geometry">
            <mxPoint x="969.57" y="1020" as="sourcePoint" />
            <mxPoint x="969.57" y="980" as="targetPoint" />
          </mxGeometry>
        </mxCell>
        <mxCell id="la9Zs1Ly_CtsKW1PTPT4-221" value="" style="endArrow=none;html=1;rounded=0;exitX=0.5;exitY=0;exitDx=0;exitDy=0;" edge="1" parent="1">
          <mxGeometry width="50" height="50" relative="1" as="geometry">
            <mxPoint x="969.57" y="1100" as="sourcePoint" />
            <mxPoint x="969.57" y="1060" as="targetPoint" />
          </mxGeometry>
        </mxCell>
        <mxCell id="la9Zs1Ly_CtsKW1PTPT4-222" value="" style="endArrow=none;html=1;rounded=0;exitX=0.5;exitY=0;exitDx=0;exitDy=0;" edge="1" parent="1">
          <mxGeometry width="50" height="50" relative="1" as="geometry">
            <mxPoint x="969.57" y="1180" as="sourcePoint" />
            <mxPoint x="969.57" y="1140" as="targetPoint" />
          </mxGeometry>
        </mxCell>
        <mxCell id="la9Zs1Ly_CtsKW1PTPT4-223" value="" style="endArrow=none;html=1;rounded=0;exitX=0.5;exitY=0;exitDx=0;exitDy=0;" edge="1" parent="1" source="la9Zs1Ly_CtsKW1PTPT4-203">
          <mxGeometry width="50" height="50" relative="1" as="geometry">
            <mxPoint x="1310" y="660" as="sourcePoint" />
            <mxPoint x="1310" y="620" as="targetPoint" />
          </mxGeometry>
        </mxCell>
        <mxCell id="la9Zs1Ly_CtsKW1PTPT4-224" value="" style="endArrow=none;html=1;rounded=0;exitX=0.5;exitY=0;exitDx=0;exitDy=0;entryX=0.5;entryY=1;entryDx=0;entryDy=0;" edge="1" parent="1" source="la9Zs1Ly_CtsKW1PTPT4-206" target="la9Zs1Ly_CtsKW1PTPT4-203">
          <mxGeometry width="50" height="50" relative="1" as="geometry">
            <mxPoint x="1309" y="1030" as="sourcePoint" />
            <mxPoint x="1309.13" y="780" as="targetPoint" />
          </mxGeometry>
        </mxCell>
        <mxCell id="la9Zs1Ly_CtsKW1PTPT4-225" value="" style="endArrow=none;html=1;rounded=0;exitX=0.327;exitY=0.029;exitDx=0;exitDy=0;exitPerimeter=0;" edge="1" parent="1" source="la9Zs1Ly_CtsKW1PTPT4-207">
          <mxGeometry width="50" height="50" relative="1" as="geometry">
            <mxPoint x="1310" y="1120" as="sourcePoint" />
            <mxPoint x="1310" y="1080" as="targetPoint" />
          </mxGeometry>
        </mxCell>
        <mxCell id="la9Zs1Ly_CtsKW1PTPT4-226" value="" style="endArrow=none;html=1;rounded=0;" edge="1" parent="1">
          <mxGeometry width="50" height="50" relative="1" as="geometry">
            <mxPoint x="1310" y="1390" as="sourcePoint" />
            <mxPoint x="1310" y="1370" as="targetPoint" />
          </mxGeometry>
        </mxCell>
        <mxCell id="la9Zs1Ly_CtsKW1PTPT4-227" value="" style="endArrow=none;dashed=1;html=1;rounded=0;exitX=0.5;exitY=0;exitDx=0;exitDy=0;" edge="1" parent="1">
          <mxGeometry width="50" height="50" relative="1" as="geometry">
            <mxPoint x="1139.83" y="1299.9999999999998" as="sourcePoint" />
            <mxPoint x="1139.83" y="1260" as="targetPoint" />
          </mxGeometry>
        </mxCell>
        <mxCell id="la9Zs1Ly_CtsKW1PTPT4-230" value="" style="endArrow=none;dashed=1;html=1;rounded=0;exitX=0.421;exitY=-0.003;exitDx=0;exitDy=0;exitPerimeter=0;" edge="1" parent="1" source="la9Zs1Ly_CtsKW1PTPT4-209">
          <mxGeometry width="50" height="50" relative="1" as="geometry">
            <mxPoint x="1090" y="1390" as="sourcePoint" />
            <mxPoint x="1140" y="1340" as="targetPoint" />
          </mxGeometry>
        </mxCell>
        <mxCell id="la9Zs1Ly_CtsKW1PTPT4-231" value="" style="endArrow=none;dashed=1;html=1;rounded=0;" edge="1" parent="1">
          <mxGeometry width="50" height="50" relative="1" as="geometry">
            <mxPoint x="1140" y="1440" as="sourcePoint" />
            <mxPoint x="1140" y="1400" as="targetPoint" />
          </mxGeometry>
        </mxCell>
        <mxCell id="la9Zs1Ly_CtsKW1PTPT4-232" value="" style="endArrow=none;dashed=1;html=1;rounded=0;" edge="1" parent="1">
          <mxGeometry width="50" height="50" relative="1" as="geometry">
            <mxPoint x="970" y="1250" as="sourcePoint" />
            <mxPoint x="970" y="1220" as="targetPoint" />
          </mxGeometry>
        </mxCell>
        <mxCell id="la9Zs1Ly_CtsKW1PTPT4-233" value="" style="endArrow=none;dashed=1;html=1;rounded=0;" edge="1" parent="1">
          <mxGeometry width="50" height="50" relative="1" as="geometry">
            <mxPoint x="1310" y="1450" as="sourcePoint" />
            <mxPoint x="1310" y="1430" as="targetPoint" />
          </mxGeometry>
        </mxCell>
      </root>
    </mxGraphModel>
  </diagram>
</mxfile>
